<?xml version="1.0" encoding="UTF-8"?>
<svg width="105px" height="104px" viewBox="0 0 105 104" version="1.1" xmlns="http://www.w3.org/2000/svg" xmlns:xlink="http://www.w3.org/1999/xlink">
    <!-- Generator: Sketch 43 (38999) - http://www.bohemiancoding.com/sketch -->
    <title>logo</title>
    <desc>Created with Sketch.</desc>
    <defs>
        <polygon id="path-1" points="104.913913 103.029218 0 103.029218 0 51.5607553 0 0.0922921751 104.913913 0.0922921751"></polygon>
    </defs>
    <g id="Page-1" stroke="none" stroke-width="1" fill="none" fill-rule="evenodd">
        <g id="默认头像-默认花型" transform="translate(-333.000000, -180.000000)">
            <g id="logo" transform="translate(333.000000, 180.000000)">
                <polygon id="Fill-1" fill="#8F8F8F" points="10.7310919 29.3726697 10.7310919 31.7292448 19.262319 31.7292448 19.262319 14.1112485 17.013653 14.1112485 17.013653 29.3726697"></polygon>
                <polygon id="Fill-2" fill="#8F8F8F" points="21.7260219 31.9620501 23.9743988 31.9620501 23.9743988 18.7542282 21.7260219 18.7542282"></polygon>
                <polygon id="Fill-3" fill="#8F8F8F" points="37.2836507 17.674255 65.6911999 17.674255 65.6911999 15.3176799 57.9448955 15.3176799 57.9448955 6.86928396 55.5574587 6.86928396 55.5574587 15.3176799 35.1335699 15.3176799 35.1335699 15.5059847 35.0349848 15.5059847 35.0349848 30.091022 41.2013253 30.091022 42.6876189 30.091022 43.4499912 30.091022 43.4499912 21.2005318 41.2013253 21.2005318 41.2013253 27.8275807 37.2836507 27.8275807"></polygon>
                <polygon id="Fill-4" fill="#8F8F8F" points="67.4604994 47.7274414 69.7825982 47.7274414 69.8476471 47.7274414 69.8476471 12.9891322 82.1045823 12.9891322 82.1045823 40.8285584 84.4920191 40.8285584 84.4920191 10.5859903 67.4604994 10.5859903 67.4604994 45.463709 62.2545688 45.463709 62.2545688 18.7034703 59.913678 18.7034703 59.913678 47.4818011 59.9489489 47.4818011 59.9489489 47.7274414"></polygon>
                <polygon id="Fill-5" fill="#8F8F8F" points="94.1056877 46.6469734 94.1056877 44.9857 94.1056877 10.7730145 93.7437271 10.7730145 93.3814773 10.7730145 92.4427504 10.7730145 92.0807897 10.7730145 91.7188291 10.7730145 91.7188291 44.9857 79.1644038 44.9857 79.1644038 17.5426744 81.4992234 17.5426744 81.4992234 15.2789421 76.7775452 15.2789421 76.7775452 16.0464224 76.7772561 16.0464224 76.7772561 47.2957083 94.1056877 47.2957083"></polygon>
                <g id="Group-9" transform="translate(0.000000, 0.198782)">
                    <mask id="mask-2" fill="white">
                        <use xlink:href="#path-1"></use>
                    </mask>
                    <g id="Clip-7"></g>
                    <path d="M64.4052856,73.8166515 L81.8207381,73.8166515 L81.8207381,70.5610446 L64.4052856,70.5610446 L64.4052856,73.8166515 Z M64.4052856,84.3404749 L86.8532051,84.3404749 L86.8532051,80.4460287 L64.4052856,80.4460287 L64.4052856,84.3404749 Z M5.04489857,10.1230573 C5.04489857,10.8951943 4.42071886,11.5232651 3.65343171,11.5232651 C2.88643366,11.5232651 2.26254305,10.8951943 2.26254305,10.1230573 C2.26254305,9.35062918 2.88643366,8.72226737 3.65343171,8.72226737 C4.42071886,8.72226737 5.04489857,9.35062918 5.04489857,10.1230573 L5.04489857,10.1230573 Z M7.30715252,10.1230573 C7.30715252,8.5674325 6.3418278,7.23765707 4.98360811,6.70068276 C5.3773704,3.5291873 8.21292141,2.38538835 10.6257995,2.38538835 L82.9745599,2.38538835 C84.3009779,2.38538835 85.627685,2.38218687 86.9543922,2.3789854 C89.5618386,2.3728735 92.2583297,2.36647055 94.9094311,2.38538835 C97.8849094,2.40663448 100.031521,4.44015185 100.129528,7.33079083 C100.15468,8.07906236 100.146007,8.84683377 100.137912,9.58957548 C100.133575,9.96996866 100.129239,10.3500708 100.129239,10.7295909 L100.129239,89.8403143 L64.4052856,89.8403143 L64.4052856,86.7436169 L86.8532051,86.7436169 L86.8532051,86.8146314 L89.3788346,86.8146314 L89.3788346,78.0428867 L64.4052856,78.0428867 L64.4052856,76.2197934 L84.3926245,76.2197934 L84.3926245,68.1576116 L61.8796562,68.1576116 L61.8796562,89.8403143 L61.8796562,89.8403143 L61.8796562,92.1078302 L61.8796562,92.1078302 L61.8796562,92.1081213 L64.4052856,92.1081213 L64.4052856,92.1078302 L102.428209,92.1078302 L102.428209,89.8403143 L102.391782,89.8403143 L102.391782,12.3396407 C102.391782,11.8247856 102.392649,11.3096395 102.393806,10.7947845 C102.395829,9.78079072 102.397853,8.73216283 102.391782,7.70012439 C102.369521,3.9794308 100.141959,0.995949112 96.8487537,0.27649084 C95.9016427,0.0695592746 94.9120331,0.0852755961 93.9556706,0.100118789 C93.7113761,0.10419339 93.4688162,0.107976949 93.2291474,0.107976949 L11.4436802,0.107976949 L11.1172796,0.107394863 C9.69921503,0.103611304 8.23402615,0.100118789 6.80815567,0.758749075 C4.54647994,1.80359341 3.02607183,3.99456504 2.72858182,6.56884028 C1.16133854,6.98270342 0,8.41696327 0,10.1230573 C0,12.1507538 1.63894155,13.8006765 3.65343171,13.8006765 C5.66821097,13.8006765 7.30715252,12.1507538 7.30715252,10.1230573 L7.30715252,10.1230573 Z" id="Fill-6" fill="#8F8F8F" mask="url(#mask-2)"></path>
                    <path d="M102.651659,99.3513664 C102.651659,100.123503 102.027479,100.751865 101.260481,100.751865 C100.493194,100.751865 99.8693036,100.123503 99.8693036,99.3513664 C99.8693036,98.5792293 100.493194,97.9508675 101.260481,97.9508675 C102.027479,97.9508675 102.651659,98.5792293 102.651659,99.3513664 M101.260481,95.6734561 C99.6406208,95.6734561 98.2659221,96.7407108 97.7883191,98.2128062 L24.5612549,98.2128062 C22.9191332,98.2128062 21.2452099,98.2343434 19.6265057,98.2552985 C16.3870737,98.2974997 13.0372032,98.340283 9.76423495,98.2130973 C6.94863225,98.103083 4.96449821,95.9764319 4.93992421,93.0415544 C4.93009461,91.8898973 4.93327477,90.7181582 4.93674404,89.5842547 C4.93847868,89.0074075 4.93992421,88.4302692 4.93992421,87.8528399 L4.93992421,74.0754469 L17.757725,74.0754469 L17.757725,47.3649765 L34.3107744,47.3649765 L34.3107744,58.8832939 L23.3021986,58.8832939 L23.3021986,92.1081795 L25.7356032,92.1081795 L25.7356032,61.2864358 L34.3107744,61.2864358 L34.3107744,92.1081795 L34.3116417,92.1081795 L36.7441791,92.1081795 L58.1706872,92.1081795 L58.1706872,92.0121353 L58.1706872,89.8444471 L58.1706872,65.9105268 L88.9633604,65.9105268 L88.9633604,70.5774012 L88.9619149,70.5774012 L88.9619149,73.1001618 L94.1056877,73.1001618 L94.1056877,70.5774012 L91.5355359,70.5774012 L91.5355359,63.6002276 L72.5843528,63.6002276 L72.5843528,59.4613052 L70.1969159,59.4613052 L70.1969159,63.6002276 L55.6913147,63.6002276 L55.6913147,89.8444471 L36.7441791,89.8444471 L36.7441791,61.2864358 L45.0588658,61.2864358 L45.0588658,76.6142149 L39.2842638,76.6142149 L39.2842638,79.0173569 L47.4919813,79.0173569 L47.4919813,61.2360854 L57.9561706,61.2360854 L57.9561706,55.2606818 L63.1141096,55.2606818 L63.1141096,59.0363825 L75.0706638,59.0273601 L75.0706638,55.2606818 L80.2676321,55.2606818 L80.2676321,60.5439852 L82.7013259,60.5439852 L82.7013259,55.2606818 L94.1056877,55.2606818 L94.1056877,53.0900831 L75.0706638,53.0900831 L75.0706638,15.0469808 L75.0677727,15.0469808 L72.6835161,15.0469808 L70.5713081,15.0469808 L70.5713081,17.3107132 L72.6835161,17.3107132 L72.6835161,56.6242182 L65.5934821,56.6242182 L65.5934821,55.2606818 L71.2906037,55.2606818 L71.2906037,53.0435163 L57.9561706,53.0435163 L57.9561706,50.4197637 L55.615569,50.4197637 L55.615569,58.8792193 L42.3855032,58.8792193 L42.3855032,58.8832939 L36.7441791,58.8832939 L36.7441791,47.3649765 L43.4754325,47.3649765 L43.4754325,47.3486781 L57.9940435,47.3486781 L57.9940435,45.993873 L58.0067642,45.993873 L58.0067642,18.5045715 L55.6658734,18.5045715 L55.6658734,44.9455361 L36.7441791,44.9455361 L36.7441791,39.7507098 L34.3107744,39.7507098 L34.3107744,44.9455361 L30.44803,44.9455361 L30.44803,36.2951564 L53.7589307,36.2951564 L53.7589307,36.292537 L53.7589307,33.9385813 L53.7589307,18.5045715 L51.4177508,18.5045715 L51.4177508,33.9385813 L30.44803,33.9385813 L30.44803,6.6704725 L28.1068501,6.6704725 L28.1068501,33.9385813 L10.7310052,33.9385813 L10.7310052,36.2951564 L28.1068501,36.2951564 L28.1068501,44.9455361 L17.757725,44.9455361 L17.757725,39.4727637 L15.2783525,39.4727637 L15.2783525,44.9455361 L11.2620928,44.9455361 L11.2620928,44.9577599 L4.89742563,44.9577599 L4.89742563,19.3480141 C4.89742563,18.6853092 4.36200144,18.1462976 3.70399633,18.1462976 C3.04599122,18.1462976 2.51056703,18.6853092 2.51056703,19.3480141 L2.51056703,66.0214142 C2.51056703,66.6841191 3.04599122,67.2228397 3.70399633,67.2228397 C4.36200144,67.2228397 4.89742563,66.6841191 4.89742563,66.0214142 L4.89742563,47.3649765 L15.2783525,47.3649765 L15.2783525,71.6723049 L3.87514705,71.6723049 C3.85288589,71.6714318 3.83062473,71.6696855 3.80807447,71.6696855 C3.78581331,71.6696855 3.76355216,71.6714318 3.741291,71.6723049 L2.8939215,71.6723049 L2.8939215,72.1010112 C2.76064367,72.2765102 2.67767026,72.5038147 2.67767026,72.7820518 L2.67767026,91.4283031 C2.67767026,91.5828469 2.67680295,91.7365176 2.67622473,91.8901883 C2.66928619,93.357045 2.66176944,94.873961 3.32382203,96.3312133 C5.01653728,100.058892 8.7194061,100.490218 11.3574978,100.490218 L97.7883191,100.490218 C98.2659221,101.962022 99.6406208,103.029277 101.260481,103.029277 C103.274972,103.029277 104.913913,101.379354 104.913913,99.3513664 C104.913913,97.3233788 103.274972,95.6734561 101.260481,95.6734561" id="Fill-8" fill="#8F8F8F" mask="url(#mask-2)"></path>
                </g>
            </g>
        </g>
    </g>
</svg>