<?xml version="1.0" encoding="UTF-8"?>
<svg width="56px" height="67px" viewBox="0 0 56 67" version="1.1" xmlns="http://www.w3.org/2000/svg" xmlns:xlink="http://www.w3.org/1999/xlink">
    <!-- Generator: Sketch 43 (38999) - http://www.bohemiancoding.com/sketch -->
    <title>morentouxiang</title>
    <desc>Created with Sketch.</desc>
    <defs></defs>
    <g id="Page-1" stroke="none" stroke-width="1" fill="none" fill-rule="evenodd">
        <g id="默认头像-默认花型" transform="translate(-681.000000, -313.000000)" fill="#999999">
            <g id="morentouxiang" transform="translate(681.000000, 313.000000)">
                <path d="M27.5673176,33.7215317 C36.8320235,33.7215317 44.3360235,26.1668976 44.3360235,16.8376293 C44.3360235,7.5548 36.8320235,0.000165853659 27.5673176,0.000165853659 C18.3487294,0.000165853659 10.8463765,7.5548 10.8463765,16.8376293 C10.8463765,26.1668976 18.3487294,33.7215317 27.5673176,33.7215317" id="Fill-1"></path>
                <path d="M54.8645176,49.9683902 C50.9329882,43.5515122 44.6049882,38.3636098 37.0581647,36.1345366 C36.0649882,35.860878 35.0256941,36.2705366 34.5744,37.1346341 C33.4511059,39.2973659 31.9193412,41.2312195 30.0449882,42.8234146 C28.6136941,44.0341463 26.5334588,44.0324878 25.1104,42.8134634 C23.2558118,41.2245854 21.7289882,39.2923902 20.6073412,37.1346341 C20.1576941,36.2705366 19.1167529,35.860878 18.1219294,36.1345366 C10.5751059,38.3636098 4.24875294,43.5515122 0.271105882,49.9683902 C-0.0896,50.5604878 -0.0896,51.3333659 0.271105882,51.9254634 C5.92051765,61.0258537 16.3595765,66.6698537 27.5678118,66.6698537 C38.7760471,66.6698537 49.2612235,61.0258537 54.8645176,51.9254634 C55.2713412,51.3333659 55.2713412,50.5604878 54.8645176,49.9683902" id="Fill-3"></path>
            </g>
        </g>
    </g>
</svg>