<?xml version="1.0" encoding="UTF-8"?>
<svg width="78px" height="68px" viewBox="0 0 78 68" version="1.1" xmlns="http://www.w3.org/2000/svg" xmlns:xlink="http://www.w3.org/1999/xlink">
    <!-- Generator: Sketch 43 (38999) - http://www.bohemiancoding.com/sketch -->
    <title>shibaitupian</title>
    <desc>Created with Sketch.</desc>
    <defs>
        <polygon id="path-1" points="0.000346666666 0.000348717949 77.7313333 0.000348717949 77.7313333 67.1210564 0.000346666666 67.1210564 0.000346666666 0.000348717949"></polygon>
    </defs>
    <g id="Page-1" stroke="none" stroke-width="1" fill="none" fill-rule="evenodd">
        <g id="默认头像-默认花型" transform="translate(-346.000000, -198.000000)">
            <g id="shibaitupian" transform="translate(346.000000, 198.000000)">
                <mask id="mask-2" fill="white">
                    <use xlink:href="#path-1"></use>
                </mask>
                <g id="Clip-2"></g>
                <path d="M72.88008,-0.000174358974 L56.6734133,-0.000174358974 C56.58848,0.174184615 56.5018133,0.435723077 56.32848,0.522902564 L51.9951467,5.57931282 L69.9334133,5.57931282 C71.1467467,5.57931282 72.10008,6.45110769 72.1867467,7.67162051 L72.27168,53.0869026 L54.94008,34.4322359 C54.4218133,33.8219795 53.64008,33.3860821 52.68848,33.3860821 C51.8218133,33.3860821 51.2151467,33.8219795 50.4351467,34.3450564 L49.6551467,34.9553128 L54.76848,40.4476205 C55.54848,41.2322359 55.54848,42.4527487 54.8551467,43.3245436 L34.4035467,66.9466974 L72.88008,66.9466974 C75.5667467,66.9466974 77.73168,64.7672103 77.73168,61.9792103 L77.73168,4.88187692 C77.7334133,2.17931282 75.5667467,-0.000174358974 72.88008,-0.000174358974 M57.54008,27.8955179 C62.1351467,27.8955179 65.86008,24.1485436 65.86008,19.5262872 C65.86008,14.9040308 62.1351467,11.1570564 57.54008,11.1570564 C52.9467467,11.1570564 49.2218133,14.9040308 49.2218133,19.5262872 C49.2218133,24.1485436 52.9467467,27.8955179 57.54008,27.8955179 M41.85688,40.709159 L31.2835467,29.3775692 L27.90528,25.9758256 C27.7302133,26.0647487 27.6435467,26.2391077 27.4719467,26.4117231 L5.54528,53.0869026 L5.54528,7.58444103 C5.72034667,6.36392821 6.67368,5.57931282 7.79861333,5.57931282 L37.69688,5.57931282 L42.54848,-0.000174358974 L4.85368,-0.000174358974 C2.16701333,-0.000174358974 0.000346666666,2.17931282 0.000346666666,4.96905641 L0.000346666666,62.1518256 C0.000346666666,64.8543897 2.16701333,67.1210564 4.85368,67.1210564 L21.66528,67.1210564 L41.9418133,43.5860821 C42.63688,42.8014667 42.63688,41.4937744 41.85688,40.709159" id="Fill-1" fill="#999999" mask="url(#mask-2)"></path>
            </g>
        </g>
    </g>
</svg>